<svg 
 xmlns="http://www.w3.org/2000/svg"
 xmlns:xlink="http://www.w3.org/1999/xlink"
 width="50px" height="50px">
<path fill-rule="evenodd"  fill="rgb(242, 86, 67)"
 d="M10.000,0.000 L40.000,0.000 C45.523,0.000 50.000,4.477 50.000,10.000 L50.000,40.000 C50.000,45.523 45.523,50.000 40.000,50.000 L10.000,50.000 C4.477,50.000 0.000,45.523 0.000,40.000 L0.000,10.000 C0.000,4.477 4.477,0.000 10.000,0.000 Z"/>
<path fill-rule="evenodd"  fill="rgb(255, 255, 255)"
 d="M40.286,39.242 L35.827,39.242 C35.124,39.242 34.554,38.675 34.554,37.976 L34.554,34.178 C34.554,33.479 35.124,32.912 35.827,32.912 L37.101,32.912 L37.101,27.215 C37.101,26.516 36.531,25.949 35.827,25.949 L25.637,25.949 L25.637,32.912 L26.911,32.912 C27.614,32.912 28.184,33.479 28.184,34.178 L28.184,37.976 C28.184,38.675 27.614,39.242 26.911,39.242 L22.452,39.242 C21.749,39.242 21.179,38.675 21.179,37.976 L21.179,34.178 C21.179,33.479 21.749,32.912 22.452,32.912 L23.726,32.912 L23.726,25.949 L14.172,25.949 C13.469,25.949 12.899,26.516 12.899,27.215 L12.899,32.912 L14.172,32.912 C14.876,32.912 15.446,33.479 15.446,34.178 L15.446,37.976 C15.446,38.675 14.876,39.242 14.172,39.242 L9.714,39.242 C9.010,39.242 8.440,38.675 8.440,37.976 L8.440,34.178 C8.440,33.479 9.010,32.912 9.714,32.912 L10.988,32.912 L10.988,26.582 C10.988,25.184 12.128,24.050 13.536,24.050 L23.726,24.050 L23.726,17.087 L22.452,17.087 C21.749,17.087 21.179,16.520 21.179,15.821 L21.179,12.023 C21.179,11.324 21.749,10.757 22.452,10.757 L26.911,10.757 C27.614,10.757 28.185,11.324 28.185,12.023 L28.185,15.821 C28.185,16.520 27.614,17.087 26.911,17.087 L25.637,17.087 L25.637,24.050 L36.464,24.050 C37.871,24.050 39.012,25.184 39.012,26.582 L39.012,32.912 L40.286,32.912 C40.989,32.912 41.560,33.478 41.560,34.178 L41.560,37.976 C41.560,38.675 40.989,39.242 40.286,39.242 Z"/>
</svg>
