<svg 
 xmlns="http://www.w3.org/2000/svg"
 xmlns:xlink="http://www.w3.org/1999/xlink"
 width="50px" height="50px">
<path fill-rule="evenodd"  fill="rgb(255, 172, 0)"
 d="M10.000,0.000 L40.000,0.000 C45.523,0.000 50.000,4.477 50.000,10.000 L50.000,40.000 C50.000,45.523 45.523,50.000 40.000,50.000 L10.000,50.000 C4.477,50.000 0.000,45.523 0.000,40.000 L0.000,10.000 C0.000,4.477 4.477,0.000 10.000,0.000 Z"/>
<path fill-rule="evenodd"  fill="rgb(255, 255, 255)"
 d="M40.102,28.453 L37.422,26.428 C37.451,26.147 37.479,25.837 37.479,25.500 C37.479,25.162 37.451,24.853 37.422,24.572 L40.102,22.547 C40.835,21.984 41.032,21.000 40.553,20.156 L37.563,15.122 C37.225,14.531 36.576,14.166 35.899,14.166 C35.674,14.166 35.476,14.194 35.251,14.278 L32.064,15.516 C31.528,15.150 30.964,14.841 30.400,14.587 L29.920,10.353 C29.779,9.425 28.990,8.750 28.031,8.750 L21.995,8.750 C21.036,8.750 20.247,9.425 20.106,10.325 L19.654,14.587 C19.090,14.841 18.554,15.150 17.990,15.516 L14.803,14.278 C14.578,14.194 14.352,14.166 14.126,14.166 C13.450,14.166 12.801,14.503 12.491,15.094 L9.473,20.156 C8.993,20.944 9.191,21.984 9.924,22.547 L12.603,24.572 C12.575,24.909 12.547,25.219 12.547,25.500 C12.547,25.781 12.547,26.091 12.603,26.428 L9.924,28.453 C9.191,29.016 8.993,30.000 9.473,30.844 L12.462,35.878 C12.801,36.469 13.450,36.834 14.126,36.834 C14.352,36.834 14.549,36.806 14.775,36.722 L17.962,35.484 C18.498,35.850 19.062,36.159 19.626,36.412 L20.106,39.647 C20.218,40.547 21.036,41.250 21.995,41.250 L28.031,41.250 C28.990,41.250 29.779,40.575 29.920,39.675 L30.400,36.412 C30.964,36.159 31.500,35.850 32.064,35.484 L35.251,36.722 C35.476,36.806 35.702,36.834 35.928,36.834 C36.605,36.834 37.253,36.497 37.563,35.906 L40.581,30.816 C41.032,30.000 40.835,29.016 40.102,28.453 L40.102,28.453 ZM31.782,25.500 C31.782,29.212 28.736,32.250 25.013,32.250 C21.290,32.250 18.244,29.212 18.244,25.500 C18.244,21.787 21.290,18.750 25.013,18.750 C28.736,18.750 31.782,21.787 31.782,25.500 Z"/>
</svg>
