<svg 
 xmlns="http://www.w3.org/2000/svg"
 xmlns:xlink="http://www.w3.org/1999/xlink"
 width="50px" height="50px">
<path fill-rule="evenodd"  fill="rgb(50, 150, 250)"
 d="M10.000,0.000 L40.000,0.000 C45.523,0.000 50.000,4.477 50.000,10.000 L50.000,40.000 C50.000,45.523 45.523,50.000 40.000,50.000 L10.000,50.000 C4.477,50.000 0.000,45.523 0.000,40.000 L0.000,10.000 C0.000,4.477 4.477,0.000 10.000,0.000 Z"/>
<path fill-rule="evenodd"  fill="rgb(255, 255, 255)"
 d="M27.133,39.136 C26.655,39.134 26.188,38.994 25.788,38.734 L18.704,34.237 C18.673,34.215 18.637,34.192 18.608,34.169 C18.337,34.017 18.032,33.936 17.721,33.935 L12.795,33.935 C10.808,33.935 9.190,32.021 9.190,29.674 L9.190,21.173 C9.190,18.822 10.808,16.913 12.795,16.913 L17.721,16.913 C18.078,16.909 18.427,16.803 18.726,16.607 L25.809,12.109 C26.608,11.588 27.635,11.574 28.446,12.074 C29.415,12.711 29.984,13.805 29.951,14.964 L29.941,19.902 L29.930,35.878 C29.961,37.038 29.392,38.132 28.425,38.770 C28.036,39.008 27.589,39.135 27.133,39.136 ZM36.697,34.301 C36.361,34.300 36.041,34.159 35.813,33.911 C35.327,33.380 35.327,32.564 35.813,32.033 C39.239,28.292 39.239,22.550 35.813,18.810 C35.327,18.278 35.327,17.462 35.813,16.931 C36.262,16.443 37.020,16.412 37.507,16.861 C37.532,16.883 37.555,16.906 37.578,16.931 C41.978,21.734 41.978,29.108 37.578,33.911 C37.352,34.159 37.032,34.301 36.697,34.301 L36.697,34.301 ZM36.697,34.301 L32.492,31.232 C32.156,31.231 31.836,31.090 31.608,30.843 C31.122,30.311 31.122,29.496 31.608,28.964 C33.443,26.958 33.443,23.882 31.608,21.876 C31.122,21.345 31.122,20.529 31.608,19.998 C32.057,19.510 32.815,19.479 33.302,19.927 C33.327,19.950 33.350,19.973 33.373,19.998 C36.180,23.067 36.180,27.774 33.373,30.843 C33.147,31.091 32.827,31.232 32.492,31.232 L36.697,34.301 Z"/>
</svg>
