<svg 
 xmlns="http://www.w3.org/2000/svg"
 xmlns:xlink="http://www.w3.org/1999/xlink"
 width="50px" height="50px">
<path fill-rule="evenodd"  fill="rgb(21, 188, 131)"
 d="M10.000,0.000 L40.000,0.000 C45.523,0.000 50.000,4.477 50.000,10.000 L50.000,40.000 C50.000,45.523 45.523,50.000 40.000,50.000 L10.000,50.000 C4.477,50.000 0.000,45.523 0.000,40.000 L0.000,10.000 C0.000,4.477 4.477,0.000 10.000,0.000 Z"/>
<path fill-rule="evenodd"  fill="rgb(255, 255, 255)"
 d="M17.303,13.102 C17.631,14.706 19.042,15.857 20.678,15.857 L30.321,15.857 C31.958,15.857 33.369,14.706 33.696,13.102 L36.519,13.102 C38.798,13.101 40.648,14.947 40.652,17.226 L40.652,36.526 C40.650,38.806 38.800,40.653 36.520,40.650 C36.519,40.650 36.519,40.650 36.519,40.650 L14.480,40.650 C12.200,40.650 10.352,38.805 10.347,36.526 L10.347,17.226 C10.349,14.946 12.200,13.100 14.480,13.102 C14.480,13.102 14.481,13.102 14.481,13.102 L17.303,13.102 ZM18.612,21.366 C17.851,21.366 17.235,21.983 17.235,22.744 C17.235,23.505 17.851,24.121 18.612,24.121 L26.877,24.121 C27.638,24.121 28.255,23.505 28.255,22.744 C28.255,21.983 27.638,21.366 26.877,21.366 L18.612,21.366 ZM18.612,26.876 C17.851,26.877 17.235,27.494 17.236,28.255 C17.236,29.015 17.852,29.630 18.612,29.631 L32.387,29.631 C33.148,29.630 33.764,29.013 33.764,28.253 C33.763,27.493 33.147,26.877 32.387,26.876 L18.612,26.876 ZM18.612,32.386 C17.851,32.386 17.235,33.004 17.236,33.764 C17.236,34.524 17.852,35.140 18.612,35.141 L26.877,35.141 C27.638,35.140 28.254,34.523 28.254,33.762 C28.253,33.002 27.637,32.386 26.877,32.386 L18.612,32.386 ZM20.678,10.347 L30.321,10.347 C31.462,10.347 32.387,11.272 32.387,12.413 C32.387,13.554 31.462,14.479 30.321,14.479 L20.678,14.479 C19.537,14.479 18.612,13.554 18.612,12.413 C18.612,11.272 19.537,10.347 20.678,10.347 Z"/>
</svg>
