<svg 
 xmlns="http://www.w3.org/2000/svg"
 xmlns:xlink="http://www.w3.org/1999/xlink"
 width="50px" height="50px">
<path fill-rule="evenodd"  fill="rgb(255, 172, 0)"
 d="M10.000,0.000 L40.000,0.000 C45.523,0.000 50.000,4.477 50.000,10.000 L50.000,40.000 C50.000,45.523 45.523,50.000 40.000,50.000 L10.000,50.000 C4.477,50.000 0.000,45.523 0.000,40.000 L0.000,10.000 C0.000,4.477 4.477,0.000 10.000,0.000 Z"/>
<path fill-rule="evenodd"  fill="rgb(255, 255, 255)"
 d="M25.000,9.712 C16.562,9.712 9.721,12.916 9.712,16.869 L9.712,33.122 C9.712,37.078 16.556,40.288 25.000,40.288 C33.444,40.288 40.288,37.078 40.288,33.122 L40.288,16.869 C40.279,12.916 33.438,9.712 25.000,9.712 ZM14.728,36.457 C14.069,36.457 13.534,35.923 13.534,35.263 C13.534,34.603 14.069,34.068 14.728,34.068 C15.388,34.068 15.923,34.603 15.923,35.263 C15.923,35.923 15.388,36.457 14.728,36.457 ZM38.377,30.823 C37.842,31.166 37.257,31.485 36.621,31.784 C33.486,33.253 29.356,34.062 25.000,34.062 C20.643,34.062 16.514,33.253 13.379,31.784 C12.743,31.485 12.157,31.166 11.623,30.823 L11.623,28.458 C14.230,30.661 19.243,32.151 25.000,32.151 C30.757,32.151 35.770,30.661 38.377,28.458 L38.377,30.823 ZM13.534,27.141 C13.534,26.481 14.069,25.946 14.728,25.946 C15.388,25.946 15.923,26.481 15.923,27.141 C15.923,27.801 15.388,28.335 14.728,28.335 C14.069,28.335 13.534,27.801 13.534,27.141 ZM38.377,22.716 C37.842,23.059 37.257,23.379 36.621,23.677 C33.486,25.146 29.356,25.955 25.000,25.955 C20.643,25.955 16.514,25.146 13.379,23.677 C12.743,23.379 12.157,23.059 11.623,22.716 L11.623,20.351 C14.230,22.554 19.243,24.044 25.000,24.044 C30.757,24.044 35.770,22.554 38.377,20.351 L38.377,22.716 L38.377,22.716 Z"/>
</svg>
