<svg 
 xmlns="http://www.w3.org/2000/svg"
 xmlns:xlink="http://www.w3.org/1999/xlink"
 width="50px" height="50px">
<path fill-rule="evenodd"  fill="rgb(50, 150, 250)"
 d="M10.000,0.000 L40.000,0.000 C45.523,0.000 50.000,4.477 50.000,10.000 L50.000,40.000 C50.000,45.523 45.523,50.000 40.000,50.000 L10.000,50.000 C4.477,50.000 0.000,45.523 0.000,40.000 L0.000,10.000 C0.000,4.477 4.477,0.000 10.000,0.000 Z"/>
<path fill-rule="evenodd"  fill="rgb(255, 255, 255)"
 d="M24.781,9.186 C17.298,9.199 11.242,15.278 11.255,22.764 C11.263,27.589 13.834,32.045 18.006,34.466 L18.006,40.814 L24.781,36.295 L31.557,40.814 L31.557,34.466 C38.030,30.709 40.234,22.415 36.479,15.939 C34.059,11.766 29.604,9.194 24.781,9.186 ZM24.781,31.777 C19.792,31.777 15.748,27.731 15.748,22.741 C15.748,17.750 19.792,13.704 24.781,13.704 C29.771,13.704 33.815,17.750 33.815,22.741 L33.815,22.741 C33.815,27.731 29.771,31.777 24.781,31.777 ZM24.781,18.222 C22.287,18.222 20.265,20.245 20.265,22.741 C20.265,25.236 22.287,27.259 24.781,27.259 C27.276,27.259 29.298,25.236 29.298,22.741 L29.298,22.741 C29.298,20.245 27.276,18.222 24.781,18.222 Z"/>
</svg>
