<svg 
 xmlns="http://www.w3.org/2000/svg"
 xmlns:xlink="http://www.w3.org/1999/xlink"
 width="50px" height="50px">
<path fill-rule="evenodd"  fill="rgb(242, 86, 67)"
 d="M10.000,0.000 L40.000,0.000 C45.523,0.000 50.000,4.477 50.000,10.000 L50.000,40.000 C50.000,45.523 45.523,50.000 40.000,50.000 L10.000,50.000 C4.477,50.000 0.000,45.523 0.000,40.000 L0.000,10.000 C0.000,4.477 4.477,0.000 10.000,0.000 Z"/>
<path fill-rule="evenodd"  fill="rgb(255, 255, 255)"
 d="M13.974,22.282 C16.427,23.666 20.673,24.580 25.500,24.580 C30.327,24.580 34.573,23.666 37.026,22.282 C38.432,23.076 39.250,24.022 39.250,25.040 C39.250,27.833 33.094,30.096 25.500,30.096 C17.906,30.096 11.750,27.833 11.750,25.040 C11.750,24.022 12.568,23.076 13.974,22.282 L13.974,22.282 ZM14.893,30.096 C17.414,31.219 21.230,31.934 25.500,31.934 C29.770,31.934 33.585,31.219 36.107,30.096 C38.070,30.969 39.250,32.091 39.250,33.313 C39.250,36.106 33.094,38.369 25.500,38.369 C17.906,38.369 11.750,36.106 11.750,33.313 C11.750,32.091 12.930,30.969 14.893,30.096 ZM25.500,22.742 C17.906,22.742 11.750,20.479 11.750,17.686 C11.750,14.893 17.906,12.630 25.500,12.630 C33.094,12.630 39.250,14.893 39.250,17.686 C39.250,20.479 33.094,22.742 25.500,22.742 Z"/>
</svg>
