<svg 
 xmlns="http://www.w3.org/2000/svg"
 xmlns:xlink="http://www.w3.org/1999/xlink"
 width="50px" height="50px">
<path fill-rule="evenodd"  fill="rgb(21, 188, 131)"
 d="M10.000,0.000 L40.000,0.000 C45.523,0.000 50.000,4.477 50.000,10.000 L50.000,40.000 C50.000,45.523 45.523,50.000 40.000,50.000 L10.000,50.000 C4.477,50.000 0.000,45.523 0.000,40.000 L0.000,10.000 C0.000,4.477 4.477,0.000 10.000,0.000 Z"/>
<path fill-rule="evenodd"  fill="rgb(255, 255, 255)"
 d="M35.955,30.624 L39.588,32.392 C39.946,32.567 40.094,32.998 39.919,33.355 C39.876,33.444 39.815,33.523 39.739,33.588 L39.602,33.681 L25.675,40.826 C25.402,40.966 25.086,40.996 24.792,40.910 L24.581,40.826 L10.654,33.681 C10.299,33.501 10.159,33.067 10.339,32.713 C10.385,32.623 10.449,32.544 10.526,32.481 L10.668,32.392 L14.297,30.624 L25.128,36.180 L35.955,30.624 ZM35.957,22.747 L39.588,24.516 C39.946,24.690 40.094,25.121 39.919,25.478 C39.876,25.568 39.815,25.647 39.739,25.711 L39.602,25.802 L25.675,32.947 C25.403,33.088 25.087,33.118 24.792,33.033 L24.581,32.947 L10.654,25.802 C10.299,25.621 10.159,25.188 10.339,24.833 C10.385,24.744 10.449,24.665 10.526,24.602 L10.668,24.516 L14.297,22.747 L25.130,28.303 L35.959,22.747 L35.957,22.747 ZM24.602,9.852 C24.934,9.690 25.322,9.690 25.654,9.852 L39.588,16.636 C39.946,16.810 40.095,17.240 39.922,17.598 C39.854,17.739 39.742,17.854 39.602,17.925 L25.675,25.070 L25.666,25.075 L25.128,25.351 L17.246,21.309 L10.654,17.925 C10.300,17.744 10.160,17.310 10.341,16.956 C10.412,16.817 10.527,16.705 10.668,16.636 L24.602,9.852 Z"/>
</svg>
