<svg 
 xmlns="http://www.w3.org/2000/svg"
 xmlns:xlink="http://www.w3.org/1999/xlink"
 width="50px" height="50px">
<path fill-rule="evenodd"  fill="rgb(21, 188, 131)"
 d="M10.000,0.000 L40.000,0.000 C45.523,0.000 50.000,4.477 50.000,10.000 L50.000,40.000 C50.000,45.523 45.523,50.000 40.000,50.000 L10.000,50.000 C4.477,50.000 0.000,45.523 0.000,40.000 L0.000,10.000 C0.000,4.477 4.477,0.000 10.000,0.000 Z"/>
<path fill-rule="evenodd"  fill="rgb(255, 255, 255)"
 d="M34.144,11.000 L20.924,11.000 C16.118,11.000 12.186,14.929 12.186,19.730 L12.186,35.362 C12.186,37.362 13.824,38.999 15.827,38.999 L29.087,38.999 C33.871,38.999 37.784,35.089 37.784,30.311 L37.784,14.638 C37.785,12.637 36.146,11.000 34.144,11.000 ZM26.020,31.179 L18.431,31.179 C17.904,31.179 17.477,30.752 17.477,30.225 C17.477,29.698 17.903,29.271 18.431,29.271 L26.020,29.271 C26.547,29.271 26.974,29.697 26.974,30.225 C26.974,30.752 26.547,31.179 26.020,31.179 ZM31.079,25.851 L18.431,25.851 C17.904,25.851 17.477,25.425 17.477,24.898 C17.477,24.371 17.903,23.944 18.431,23.944 L31.079,23.944 C31.606,23.944 32.033,24.370 32.033,24.898 C32.033,25.425 31.607,25.851 31.079,25.851 ZM31.079,20.525 L18.431,20.525 C17.904,20.525 17.477,20.099 17.477,19.571 C17.477,19.044 17.903,18.617 18.431,18.617 L31.079,18.617 C31.606,18.617 32.033,19.044 32.033,19.571 C32.033,20.099 31.607,20.525 31.079,20.525 Z"/>
</svg>
