<svg 
 xmlns="http://www.w3.org/2000/svg"
 xmlns:xlink="http://www.w3.org/1999/xlink"
 width="50px" height="50px">
<path fill-rule="evenodd"  fill="rgb(50, 150, 250)"
 d="M10.000,0.000 L40.000,0.000 C45.523,0.000 50.000,4.477 50.000,10.000 L50.000,40.000 C50.000,45.523 45.523,50.000 40.000,50.000 L10.000,50.000 C4.477,50.000 0.000,45.523 0.000,40.000 L0.000,10.000 C0.000,4.477 4.477,0.000 10.000,0.000 Z"/>
<path fill-rule="evenodd"  fill="rgb(255, 255, 255)"
 d="M9.280,23.646 C9.110,23.816 8.941,24.069 8.941,24.408 C8.941,24.662 9.026,24.915 9.280,25.169 L14.525,30.584 C14.694,30.668 14.948,30.837 15.286,30.837 C15.540,30.837 15.878,30.753 16.048,30.499 L21.547,25.085 C21.716,24.915 21.885,24.662 21.885,24.323 C21.885,23.985 21.800,23.731 21.547,23.562 L16.048,18.232 C15.878,18.063 15.625,17.894 15.286,17.894 C15.032,17.894 14.779,17.978 14.525,18.232 L9.280,23.646 ZM39.059,10.703 C39.059,10.449 38.974,10.195 38.720,9.941 C38.551,9.772 38.213,9.603 37.959,9.603 L29.584,9.603 C29.330,9.603 29.076,9.687 28.822,9.941 C28.653,10.110 28.484,10.449 28.484,10.703 L28.484,12.818 L23.746,12.818 C23.492,12.818 23.239,12.902 22.985,13.156 C22.816,13.325 22.646,13.664 22.646,13.917 L22.646,35.067 C22.646,35.321 22.731,35.575 22.985,35.829 C23.154,35.998 23.492,36.167 23.746,36.167 L28.484,36.167 L28.484,39.297 C28.484,39.551 28.568,39.805 28.822,40.059 C28.991,40.228 29.330,40.397 29.584,40.397 L37.959,40.397 C38.213,40.397 38.467,40.313 38.720,40.059 C38.890,39.890 39.059,39.551 39.059,39.297 L39.059,32.445 C39.059,32.191 38.974,31.937 38.720,31.683 C38.551,31.514 38.213,31.345 37.959,31.345 L29.584,31.345 C29.330,31.345 29.076,31.430 28.822,31.683 C28.653,31.853 28.484,32.191 28.484,32.445 L28.484,32.952 L26.369,32.952 C26.115,32.952 25.861,32.868 25.607,32.614 C25.438,32.445 25.269,32.106 25.269,31.853 L25.269,16.455 C25.269,16.202 25.354,15.948 25.607,15.694 C25.777,15.525 26.115,15.356 26.369,15.356 L28.484,15.356 L28.484,17.471 C28.484,17.724 28.568,17.978 28.822,18.232 C28.991,18.401 29.330,18.570 29.584,18.570 L37.959,18.570 C38.213,18.570 38.467,18.486 38.720,18.232 C38.890,18.063 39.059,17.724 39.059,17.471 L39.059,10.703 Z"/>
</svg>
