<svg 
 xmlns="http://www.w3.org/2000/svg"
 xmlns:xlink="http://www.w3.org/1999/xlink"
 width="50px" height="50px">
<path fill-rule="evenodd"  fill="rgb(242, 86, 67)"
 d="M10.000,0.000 L40.000,0.000 C45.523,0.000 50.000,4.477 50.000,10.000 L50.000,40.000 C50.000,45.523 45.523,50.000 40.000,50.000 L10.000,50.000 C4.477,50.000 0.000,45.523 0.000,40.000 L0.000,10.000 C0.000,4.477 4.477,0.000 10.000,0.000 Z"/>
<path fill-rule="evenodd"  fill="rgb(255, 255, 255)"
 d="M39.008,13.081 C38.977,12.400 38.427,11.856 37.746,11.832 L26.225,11.444 C25.863,11.430 25.512,11.567 25.258,11.822 L11.497,25.510 C10.985,26.020 10.981,26.849 11.494,27.362 L23.555,39.491 C24.064,40.004 24.893,40.007 25.406,39.494 L39.156,25.816 C39.417,25.555 39.559,25.197 39.541,24.829 L39.008,13.081 L39.008,13.081 ZM32.984,20.545 C31.471,20.545 30.246,19.316 30.246,17.806 C30.246,16.292 31.474,15.067 32.984,15.067 C34.498,15.067 35.723,16.295 35.723,17.806 C35.723,19.316 34.495,20.545 32.984,20.545 Z"/>
</svg>
