<svg 
 xmlns="http://www.w3.org/2000/svg"
 xmlns:xlink="http://www.w3.org/1999/xlink"
 width="50px" height="50px">
<path fill-rule="evenodd"  fill="rgb(50, 150, 250)"
 d="M10.000,0.000 L40.000,0.000 C45.523,0.000 50.000,4.477 50.000,10.000 L50.000,40.000 C50.000,45.523 45.523,50.000 40.000,50.000 L10.000,50.000 C4.477,50.000 0.000,45.523 0.000,40.000 L0.000,10.000 C0.000,4.477 4.477,0.000 10.000,0.000 Z"/>
<path fill-rule="evenodd"  fill="rgb(255, 255, 255)"
 d="M40.120,33.416 L40.120,37.285 C40.120,38.850 38.850,40.120 37.285,40.120 L34.450,40.120 C32.885,40.120 31.615,38.850 31.615,37.285 L31.615,33.416 C31.615,32.634 31.931,31.925 32.445,31.411 C32.959,30.897 33.667,30.581 34.450,30.581 C34.710,30.581 34.922,30.369 34.922,30.109 L34.922,27.835 C34.922,27.312 34.500,26.890 33.977,26.890 L26.417,26.890 C26.158,26.890 25.945,27.103 25.945,27.362 L25.945,30.138 C25.945,30.384 26.143,30.581 26.388,30.581 L26.417,30.581 C27.983,30.581 29.252,31.851 29.252,33.416 L29.252,37.285 C29.252,38.850 27.983,40.120 26.417,40.120 L23.582,40.120 C22.017,40.120 20.747,38.850 20.747,37.285 L20.747,33.416 C20.747,31.851 22.017,30.581 23.582,30.581 L23.612,30.581 C23.857,30.581 24.055,30.384 24.055,30.138 L24.055,27.362 C24.055,27.103 23.842,26.890 23.582,26.890 L16.022,26.890 C15.500,26.890 15.077,27.312 15.077,27.835 L15.077,30.109 C15.077,30.239 15.131,30.357 15.216,30.443 C15.302,30.528 15.420,30.581 15.550,30.581 C17.115,30.581 18.385,31.851 18.385,33.416 L18.385,37.285 C18.385,38.850 17.115,40.120 15.550,40.120 L12.715,40.120 C11.150,40.120 9.880,38.850 9.880,37.285 L9.880,33.416 C9.880,32.634 10.196,31.925 10.710,31.411 C11.224,30.897 11.932,30.581 12.715,30.581 C12.975,30.581 13.187,30.369 13.187,30.109 L13.187,27.835 C13.187,26.270 14.457,25.000 16.022,25.000 L23.582,25.000 C23.842,25.000 24.055,24.787 24.055,24.527 L24.055,21.692 C24.055,21.433 23.842,21.220 23.582,21.220 L22.165,21.220 C20.600,21.220 19.330,19.950 19.330,18.385 L19.330,12.715 C19.330,11.150 20.600,9.880 22.165,9.880 L27.835,9.880 C29.400,9.880 30.670,11.150 30.670,12.715 L30.670,18.385 C30.670,19.950 29.400,21.220 27.835,21.220 L26.417,21.220 C26.158,21.220 25.945,21.433 25.945,21.692 L25.945,24.527 C25.945,24.787 26.158,25.000 26.417,25.000 L33.977,25.000 C35.543,25.000 36.812,26.270 36.812,27.835 L36.812,30.109 C36.812,30.369 37.025,30.581 37.285,30.581 C38.850,30.581 40.120,31.851 40.120,33.416 Z"/>
</svg>
