<svg 
 xmlns="http://www.w3.org/2000/svg"
 xmlns:xlink="http://www.w3.org/1999/xlink"
 width="50px" height="50px">
<path fill-rule="evenodd"  fill="rgb(21, 188, 131)"
 d="M10.000,0.000 L40.000,0.000 C45.523,0.000 50.000,4.477 50.000,10.000 L50.000,40.000 C50.000,45.523 45.523,50.000 40.000,50.000 L10.000,50.000 C4.477,50.000 0.000,45.523 0.000,40.000 L0.000,10.000 C0.000,4.477 4.477,0.000 10.000,0.000 Z"/>
<path fill-rule="evenodd"  fill="rgb(255, 255, 255)"
 d="M24.882,13.720 C18.642,13.720 13.586,18.771 13.586,25.000 C13.586,31.230 18.642,36.280 24.882,36.280 C31.121,36.280 36.179,31.230 36.179,25.000 C36.179,18.771 31.121,13.720 24.882,13.720 ZM29.302,25.657 C29.746,25.657 30.106,26.016 30.106,26.460 C30.106,26.904 29.746,27.263 29.302,27.263 L25.687,27.263 L25.687,31.248 C25.687,31.691 25.325,32.050 24.882,32.050 C24.440,32.050 24.078,31.691 24.078,31.248 L24.078,27.262 L20.463,27.262 C20.018,27.262 19.658,26.903 19.658,26.459 C19.658,26.015 20.018,25.656 20.463,25.656 L24.078,25.656 L24.078,23.768 L20.463,23.768 C20.018,23.768 19.658,23.409 19.658,22.965 C19.658,22.522 20.018,22.162 20.463,22.162 L24.078,22.162 L24.078,21.949 L21.499,19.326 C21.498,19.325 21.497,19.325 21.496,19.324 C21.496,19.323 21.495,19.322 21.494,19.321 L21.474,19.301 L21.479,19.296 C21.192,18.979 21.199,18.491 21.508,18.190 C21.817,17.887 22.301,17.890 22.615,18.179 L22.620,18.175 L22.641,18.197 C22.642,18.197 22.644,18.198 22.644,18.199 C22.645,18.200 22.646,18.201 22.646,18.202 L24.868,20.460 L27.102,18.188 C27.412,17.871 27.922,17.868 28.238,18.178 C28.555,18.489 28.558,18.996 28.248,19.313 L25.687,21.916 L25.687,22.161 L29.302,22.161 C29.746,22.161 30.106,22.520 30.106,22.963 C30.106,23.407 29.746,23.766 29.302,23.766 L25.687,23.766 L25.687,25.655 L29.302,25.655 L29.302,25.657 ZM24.882,8.080 C19.282,8.080 14.324,10.798 11.239,14.978 L10.215,14.388 L10.209,14.392 C9.876,14.218 9.462,14.331 9.273,14.659 C9.212,14.764 9.191,14.877 9.188,14.990 L9.172,14.997 L9.551,18.819 L9.569,18.828 C9.589,19.050 9.700,19.260 9.907,19.379 C10.114,19.498 10.351,19.488 10.553,19.394 L10.571,19.405 L14.007,17.851 L14.007,17.836 C14.132,17.777 14.243,17.695 14.317,17.567 C14.500,17.250 14.400,16.856 14.108,16.647 L14.109,16.632 L13.097,16.049 C15.805,12.500 20.067,10.195 24.882,10.195 C33.071,10.195 39.709,16.824 39.709,25.000 C39.709,33.178 33.071,39.805 24.882,39.805 C19.249,39.805 14.350,36.669 11.841,32.050 L9.914,32.914 C12.758,38.267 18.388,41.920 24.882,41.920 C34.240,41.920 41.827,34.345 41.827,25.000 C41.827,15.656 34.240,8.080 24.882,8.080 Z"/>
</svg>
