<svg 
 xmlns="http://www.w3.org/2000/svg"
 xmlns:xlink="http://www.w3.org/1999/xlink"
 width="50px" height="50px">
<path fill-rule="evenodd"  fill="rgb(167, 114, 239)"
 d="M10.000,0.000 L40.000,0.000 C45.523,0.000 50.000,4.477 50.000,10.000 L50.000,40.000 C50.000,45.523 45.523,50.000 40.000,50.000 L10.000,50.000 C4.477,50.000 0.000,45.523 0.000,40.000 L0.000,10.000 C0.000,4.477 4.477,0.000 10.000,0.000 Z"/>
<path fill-rule="evenodd"  fill="rgb(255, 255, 255)"
 d="M35.500,40.890 L14.501,40.890 C12.843,40.890 11.501,39.546 11.501,37.887 L11.501,32.534 C11.500,30.405 12.989,28.566 15.071,28.127 L18.116,27.459 C18.434,27.386 18.761,27.534 18.918,27.820 L25.285,39.231 C25.488,39.591 26.013,39.591 26.215,39.231 L32.418,28.112 C32.575,27.827 32.905,27.685 33.220,27.752 L34.930,28.127 C37.007,28.563 38.500,30.402 38.500,32.534 L38.500,37.887 C38.500,39.546 37.157,40.890 35.500,40.890 ZM23.501,28.878 L23.501,28.127 C23.501,27.715 23.838,27.377 24.250,27.377 L27.250,27.377 C27.663,27.377 28.000,27.715 28.000,28.127 L28.000,28.878 C28.000,29.291 27.663,29.629 27.250,29.629 L26.800,29.629 L27.970,33.998 C27.985,34.081 27.970,34.171 27.918,34.238 L26.110,36.656 C26.085,36.690 26.055,36.720 26.020,36.746 C25.822,36.895 25.540,36.855 25.390,36.656 L23.583,34.238 C23.531,34.171 23.516,34.081 23.531,33.998 L24.700,29.629 L24.250,29.629 C23.838,29.629 23.501,29.291 23.501,28.878 ZM25.750,26.626 C22.038,26.626 19.001,23.586 19.001,19.870 L19.001,16.867 C19.001,13.151 22.038,10.110 25.750,10.110 C29.463,10.110 32.500,13.151 32.500,16.867 L32.500,19.870 C32.500,23.586 29.463,26.626 25.750,26.626 Z"/>
</svg>
