<svg 
 xmlns="http://www.w3.org/2000/svg"
 xmlns:xlink="http://www.w3.org/1999/xlink"
 width="50px" height="50px">
<path fill-rule="evenodd"  fill="rgb(21, 188, 131)"
 d="M10.000,0.000 L40.000,0.000 C45.523,0.000 50.000,4.477 50.000,10.000 L50.000,40.000 C50.000,45.523 45.523,50.000 40.000,50.000 L10.000,50.000 C4.477,50.000 0.000,45.523 0.000,40.000 L0.000,10.000 C0.000,4.477 4.477,0.000 10.000,0.000 Z"/>
<path fill-rule="evenodd"  fill="rgb(255, 255, 255)"
 d="M16.979,35.175 L34.021,35.175 L34.021,37.384 L16.979,37.384 L16.979,35.175 ZM37.783,12.616 L13.216,12.616 C12.608,12.616 12.110,13.113 12.110,13.721 L12.110,32.650 C12.110,33.258 12.608,33.755 13.216,33.755 L37.783,33.755 C38.392,33.755 38.890,33.258 38.890,32.650 L38.890,13.721 C38.890,13.110 38.394,12.616 37.783,12.616 ZM33.307,24.497 L30.092,24.497 L29.052,21.791 L25.472,29.800 L22.739,23.912 L21.555,26.889 L17.687,26.889 L17.687,24.680 L20.050,24.680 L22.578,18.322 L25.428,24.464 L29.201,16.024 L31.614,22.288 L33.307,22.288 L33.307,24.497 Z"/>
</svg>
