<svg 
 xmlns="http://www.w3.org/2000/svg"
 xmlns:xlink="http://www.w3.org/1999/xlink"
 width="50px" height="50px">
<path fill-rule="evenodd"  fill="rgb(255, 172, 0)"
 d="M10.000,-0.000 L40.000,-0.000 C45.523,-0.000 50.000,4.477 50.000,10.000 L50.000,40.000 C50.000,45.523 45.523,50.000 40.000,50.000 L10.000,50.000 C4.477,50.000 -0.000,45.523 -0.000,40.000 L-0.000,10.000 C-0.000,4.477 4.477,-0.000 10.000,-0.000 Z"/>
<path fill-rule="evenodd"  fill="rgb(255, 255, 255)"
 d="M37.383,39.666 L13.616,39.666 C12.610,39.666 11.794,38.853 11.794,37.851 L11.794,14.167 C11.794,13.179 12.610,12.366 13.602,12.366 L17.626,12.366 L17.626,12.075 C17.626,11.117 18.413,10.333 19.376,10.333 C20.338,10.333 21.125,11.117 21.125,12.075 L21.125,12.366 L29.888,12.366 L29.888,12.075 C29.888,11.117 30.676,10.333 31.638,10.333 C32.600,10.333 33.388,11.117 33.388,12.075 L33.388,12.366 L37.397,12.366 C38.389,12.366 39.191,13.179 39.205,14.167 L39.205,37.851 C39.205,38.853 38.389,39.666 37.383,39.666 ZM18.690,29.124 L23.633,34.047 C24.085,34.497 24.829,34.497 25.281,34.047 L33.111,26.249 L33.111,26.248 C33.563,25.798 33.563,25.058 33.125,24.608 C32.673,24.157 31.930,24.157 31.477,24.608 L24.464,31.592 L20.338,27.483 C19.886,27.033 19.142,27.033 18.690,27.483 C18.238,27.933 18.238,28.674 18.690,29.124 ZM36.654,14.689 L33.388,14.689 L33.388,14.980 C33.388,15.938 32.600,16.722 31.638,16.722 C30.676,16.722 29.888,15.938 29.888,14.980 L29.888,14.689 L21.125,14.689 L21.125,14.980 C21.125,15.938 20.338,16.722 19.376,16.722 C18.413,16.722 17.626,15.938 17.626,14.980 L17.626,14.689 L14.345,14.689 C14.229,14.689 14.141,14.776 14.141,14.878 L14.141,18.175 L36.799,18.175 C36.799,17.797 36.799,17.318 36.814,16.839 C36.829,16.272 36.829,15.807 36.843,15.473 C36.843,15.270 36.843,15.052 36.858,14.878 C36.858,14.776 36.770,14.689 36.654,14.689 Z"/>
</svg>
