<svg 
 xmlns="http://www.w3.org/2000/svg"
 xmlns:xlink="http://www.w3.org/1999/xlink"
 width="50px" height="50px">
<path fill-rule="evenodd"  fill="rgb(167, 114, 239)"
 d="M10.000,0.000 L40.000,0.000 C45.523,0.000 50.000,4.477 50.000,10.000 L50.000,40.000 C50.000,45.523 45.523,50.000 40.000,50.000 L10.000,50.000 C4.477,50.000 0.000,45.523 0.000,40.000 L0.000,10.000 C0.000,4.477 4.477,0.000 10.000,0.000 Z"/>
<path fill-rule="evenodd"  fill="rgb(255, 255, 255)"
 d="M21.307,9.550 C20.055,11.550 20.806,14.300 23.059,15.550 C25.062,16.800 27.816,16.050 29.068,14.050 C30.320,12.050 29.569,9.300 27.566,8.050 C26.564,7.550 25.313,7.300 24.311,7.550 C22.809,7.800 21.808,8.550 21.307,9.550 ZM41.335,30.800 C39.833,29.300 37.830,29.050 36.077,30.050 C34.325,31.050 33.574,33.050 34.075,34.800 C34.325,35.800 35.076,36.800 36.077,37.550 C38.080,38.800 40.834,38.050 42.086,36.050 C43.087,34.550 42.837,32.300 41.335,30.800 L41.335,30.800 ZM36.578,26.550 C37.580,26.300 38.831,26.300 39.833,26.550 L39.833,17.300 L32.322,13.800 C32.072,14.800 31.321,15.800 30.570,16.550 L36.578,19.050 L36.578,26.550 ZM7.788,35.050 C8.039,36.050 8.790,37.050 9.791,37.800 C10.793,38.300 12.044,38.550 13.046,38.300 C14.047,38.050 15.048,37.300 15.799,36.300 C16.551,35.050 16.551,33.300 15.799,32.050 C15.048,30.800 13.546,29.800 12.044,29.800 C10.542,29.800 9.040,30.550 8.289,32.050 C7.538,32.800 7.288,33.800 7.788,35.050 ZM13.546,26.550 L13.546,19.300 L19.304,16.800 C18.553,16.050 18.053,15.050 17.552,14.050 L10.041,17.550 L10.041,26.800 C11.544,26.300 12.545,26.300 13.546,26.550 L13.546,26.550 ZM25.062,38.550 L19.304,36.050 C19.054,36.550 18.804,37.300 18.553,37.800 C18.303,38.300 18.053,38.550 17.802,39.050 L25.313,42.300 L32.823,39.050 C32.072,38.300 31.571,37.300 31.071,36.300 L25.062,38.550 L25.062,38.550 Z"/>
</svg>
