<svg 
 xmlns="http://www.w3.org/2000/svg"
 xmlns:xlink="http://www.w3.org/1999/xlink"
 width="41px" height="41px">
<path fill-rule="evenodd"  fill="rgb(199, 199, 199)"
 d="M2.661,17.751 L38.361,17.751 C39.741,17.751 40.861,18.870 40.861,20.251 L40.861,20.751 C40.861,22.131 39.741,23.251 38.361,23.251 L2.661,23.251 C1.280,23.251 0.161,22.131 0.161,20.751 L0.161,20.251 C0.161,18.870 1.280,17.751 2.661,17.751 Z"/>
<path fill-rule="evenodd"  fill="rgb(199, 199, 199)"
 d="M23.248,2.661 L23.248,38.361 C23.248,39.741 22.129,40.861 20.748,40.861 L20.248,40.861 C18.868,40.861 17.748,39.741 17.748,38.361 L17.748,2.661 C17.748,1.280 18.868,0.161 20.248,0.161 L20.748,0.161 C22.129,0.161 23.248,1.280 23.248,2.661 Z"/>
</svg>
