<svg 
 xmlns="http://www.w3.org/2000/svg"
 xmlns:xlink="http://www.w3.org/1999/xlink"
 width="50px" height="50px">
<path fill-rule="evenodd"  fill="rgb(50, 150, 250)"
 d="M10.000,0.000 L40.000,0.000 C45.523,0.000 50.000,4.477 50.000,10.000 L50.000,40.000 C50.000,45.523 45.523,50.000 40.000,50.000 L10.000,50.000 C4.477,50.000 0.000,45.523 0.000,40.000 L0.000,10.000 C0.000,4.477 4.477,0.000 10.000,0.000 Z"/>
<path fill-rule="evenodd"  fill="rgb(255, 255, 255)"
 d="M16.504,10.679 L16.504,39.103 L12.867,39.103 L12.867,10.679 L16.504,10.679 ZM34.695,10.679 C36.197,10.679 37.416,11.956 37.416,13.508 L37.416,36.276 C37.416,37.837 36.197,39.103 34.695,39.103 L19.232,39.103 L19.232,10.679 L34.695,10.679 L34.695,10.679 ZM29.333,18.259 L27.315,18.259 L22.869,29.841 L25.045,29.841 L26.256,26.682 L30.388,26.682 L31.602,29.841 L33.779,29.841 L29.333,18.259 ZM28.324,21.297 L29.580,24.575 L27.063,24.575 L28.324,21.297 ZM38.779,16.364 L41.507,16.364 L41.507,22.049 L38.779,22.049 L38.779,16.364 ZM38.779,24.891 L41.507,24.891 L41.507,30.576 L38.779,30.576 L38.779,24.891 Z"/>
</svg>
