<svg 
 xmlns="http://www.w3.org/2000/svg"
 xmlns:xlink="http://www.w3.org/1999/xlink"
 width="50px" height="50px">
<path fill-rule="evenodd"  fill="rgb(50, 150, 250)"
 d="M10.000,0.000 L40.000,0.000 C45.523,0.000 50.000,4.477 50.000,10.000 L50.000,40.000 C50.000,45.523 45.523,50.000 40.000,50.000 L10.000,50.000 C4.477,50.000 0.000,45.523 0.000,40.000 L0.000,10.000 C0.000,4.477 4.477,0.000 10.000,0.000 Z"/>
<path fill-rule="evenodd"  fill="rgb(255, 255, 255)"
 d="M36.594,29.575 C35.573,28.847 34.261,28.411 32.948,28.411 C29.302,28.411 26.385,31.321 26.385,34.960 C26.385,36.269 26.823,37.579 27.552,38.598 L13.405,38.598 C12.530,38.598 11.946,38.015 11.946,37.142 L11.946,12.403 C11.946,11.529 12.530,10.947 13.405,10.947 L35.282,10.947 C36.157,10.947 36.740,11.529 36.740,12.403 L36.740,29.575 L36.594,29.575 L36.594,29.575 ZM16.760,32.777 L24.490,32.777 C24.781,32.777 25.073,32.486 25.073,32.049 C25.073,31.613 24.781,31.322 24.490,31.322 L16.760,31.322 C16.468,31.322 16.176,31.613 16.176,32.049 C16.176,32.486 16.468,32.777 16.760,32.777 ZM31.490,16.768 L16.905,16.768 C16.468,16.768 16.176,17.059 16.176,17.496 C16.176,17.932 16.468,18.224 16.905,18.224 L31.490,18.224 C31.928,18.224 32.219,17.933 32.219,17.496 C32.219,17.059 31.928,16.768 31.490,16.768 ZM31.490,24.045 L16.905,24.045 C16.468,24.045 16.176,24.336 16.176,24.772 C16.176,25.209 16.468,25.500 16.905,25.500 L31.490,25.500 C31.928,25.500 32.219,25.209 32.219,24.772 C32.219,24.336 31.928,24.045 31.490,24.045 ZM32.948,29.866 C35.719,29.866 38.053,32.195 38.053,34.960 C38.053,37.724 35.719,40.053 32.948,40.053 C30.177,40.053 27.844,37.724 27.844,34.960 C27.844,32.195 30.177,29.866 32.948,29.866 ZM32.219,34.960 C32.219,35.106 32.365,35.397 32.365,35.542 C32.365,35.688 32.657,35.688 32.948,35.688 L35.865,35.688 C36.303,35.688 36.594,35.397 36.594,34.960 C36.594,34.523 36.303,34.232 35.865,34.232 L33.678,34.232 L33.678,32.049 C33.678,31.613 33.386,31.322 32.948,31.322 C32.511,31.322 32.219,31.613 32.219,32.049 L32.219,34.960 Z"/>
</svg>
