<svg xmlns="http://www.w3.org/2000/svg" width="24" height="24" viewBox="0 0 24 24">
  <defs>
    <style>
      .cls-1 {
        fill: none;
      }

      .cls-2 {
        fill: #9fa2b5;
      }
    </style>
  </defs>
  <g id="组_23726" data-name="组 23726" transform="translate(-20 -96)">
    <rect id="矩形_300" data-name="矩形 300" class="cls-1" width="24" height="24" transform="translate(20 96)"/>
    <g id="组_23729" data-name="组 23729" transform="translate(-3248.128 750.984)">
      <g id="组_23727" data-name="组 23727">
        <path id="路径_18660" data-name="路径 18660" class="cls-2" d="M3279.849-653.984a10.734,10.734,0,0,1,10.722,10.722,10.734,10.734,0,0,1-10.722,10.722,10.734,10.734,0,0,1-10.721-10.722,10.645,10.645,0,0,1,2.018-6.263l.585-.812,1.458,1.4-.42.584a8.662,8.662,0,0,0-1.641,5.094,8.732,8.732,0,0,0,8.721,8.722,8.732,8.732,0,0,0,8.722-8.722,8.732,8.732,0,0,0-8.722-8.722,8.732,8.732,0,0,0-4.252,1.1l-.625.351-1.224-1.607.873-.489A10.717,10.717,0,0,1,3279.849-653.984Z"/>
      </g>
      <g id="组_23728" data-name="组 23728">
        <path id="路径_18661" data-name="路径 18661" class="cls-2" d="M3279.85-637.835c-2.638,0-4.784-2.435-4.784-5.427s2.146-5.427,4.784-5.427,4.783,2.435,4.783,5.427v1h-7.445a2.929,2.929,0,0,0,2.662,2.427,2.517,2.517,0,0,0,1.886-.913l.66-.751,1.5,1.32-.66.751A4.485,4.485,0,0,1,3279.85-637.835Zm-2.662-6.427h5.324a2.929,2.929,0,0,0-2.662-2.427A2.928,2.928,0,0,0,3277.188-644.262Z"/>
      </g>
    </g>
  </g>
</svg>
