<?xml version="1.0" standalone="no"?><!DOCTYPE svg PUBLIC "-//W3C//DTD SVG 1.1//EN" "http://www.w3.org/Graphics/SVG/1.1/DTD/svg11.dtd"><svg t="1634634700195" class="icon" viewBox="0 0 1024 1024" version="1.1" xmlns="http://www.w3.org/2000/svg" p-id="6960" xmlns:xlink="http://www.w3.org/1999/xlink" width="200" height="200"><defs><style type="text/css"></style></defs><path d="M0 0m281.6 0l460.8 0q281.6 0 281.6 281.6l0 460.8q0 281.6-281.6 281.6l-460.8 0q-281.6 0-281.6-281.6l0-460.8q0-281.6 281.6-281.6Z" fill="#3296FA" p-id="6961"></path><path d="M503.9104 523.2384l-229.9136-120.32a24.32 24.32 0 0 1 0-41.2928l229.9392-120.32a25.1904 25.1904 0 0 1 26.8032 0l229.9136 120.32a24.32 24.32 0 0 1 0 41.2928l-229.9136 120.32a25.1648 25.1648 0 0 1-26.8288 0z" fill="#FFFFFF" p-id="6962"></path><path d="M517.0432 646.2208a43.9552 43.9552 0 0 1-22.6304-6.2208l-222.2336-116.0704a19.6096 19.6096 0 0 1 18.176-34.7648l223.4368 116.736 0.6656 0.4096a4.7872 4.7872 0 0 0 5.12 0l0.6656-0.4096 0.6912-0.3584 223.1552-117.1712a19.6096 19.6096 0 0 1 18.2272 34.7136l-222.592 116.864a44.0832 44.0832 0 0 1-22.6816 6.272z" fill="#FFFFFF" p-id="6963"></path><path d="M517.0432 765.3632a43.9552 43.9552 0 0 1-22.6304-6.2208l-222.2336-116.0704a19.6096 19.6096 0 0 1 18.176-34.7648l223.4368 116.736 0.6656 0.4096a4.7872 4.7872 0 0 0 5.12 0l0.6656-0.4096 0.6912-0.3584 223.1552-117.1712a19.6096 19.6096 0 0 1 18.2272 34.7136l-222.5152 116.7616a44.0576 44.0576 0 0 1-22.7584 6.3744z" fill="#FFFFFF" p-id="6964"></path></svg>