<svg 
 xmlns="http://www.w3.org/2000/svg"
 xmlns:xlink="http://www.w3.org/1999/xlink"
 width="50px" height="50px">
<path fill-rule="evenodd"  fill="rgb(50, 150, 250)"
 d="M10.000,0.000 L40.000,0.000 C45.523,0.000 50.000,4.477 50.000,10.000 L50.000,40.000 C50.000,45.523 45.523,50.000 40.000,50.000 L10.000,50.000 C4.477,50.000 0.000,45.523 0.000,40.000 L0.000,10.000 C0.000,4.477 4.477,0.000 10.000,0.000 Z"/>
<path fill-rule="evenodd"  fill="rgb(255, 255, 255)"
 d="M17.736,11.500 C21.175,11.502 23.961,14.292 23.961,17.731 L23.961,23.958 L17.736,23.958 C14.296,23.866 11.583,21.002 11.675,17.562 C11.764,14.251 14.426,11.589 17.736,11.500 ZM17.736,26.037 L23.961,26.037 L23.961,32.266 C23.960,35.708 21.170,38.497 17.729,38.496 C14.288,38.494 11.500,35.703 11.501,32.262 C11.502,28.820 14.293,26.031 17.734,26.033 C17.734,26.033 17.735,26.033 17.736,26.033 L17.736,26.037 ZM32.265,11.500 C35.705,11.592 38.418,14.456 38.326,17.897 C38.237,21.207 35.575,23.869 32.265,23.958 L26.042,23.958 L26.042,17.731 C26.042,14.292 28.827,11.504 32.265,11.500 ZM26.042,26.037 L32.270,26.037 C35.711,26.037 38.500,28.827 38.500,32.269 C38.500,35.710 35.711,38.500 32.270,38.500 C28.829,38.500 26.040,35.710 26.040,32.269 C26.040,32.268 26.040,32.267 26.040,32.266 L26.040,26.033 L26.042,26.037 Z"/>
</svg>
