<svg 
 xmlns="http://www.w3.org/2000/svg"
 xmlns:xlink="http://www.w3.org/1999/xlink"
 width="50px" height="50px">
<path fill-rule="evenodd"  fill="rgb(255, 172, 0)"
 d="M10.000,-0.000 L40.000,-0.000 C45.523,-0.000 50.000,4.477 50.000,10.000 L50.000,40.000 C50.000,45.523 45.523,50.000 40.000,50.000 L10.000,50.000 C4.477,50.000 -0.000,45.523 -0.000,40.000 L-0.000,10.000 C-0.000,4.477 4.477,-0.000 10.000,-0.000 Z"/>
<path fill-rule="evenodd"  fill="rgb(255, 255, 255)"
 d="M39.424,21.991 L35.363,11.866 C35.279,11.641 35.081,11.500 34.828,11.500 L15.285,11.500 C15.059,11.500 14.862,11.641 14.777,11.837 L10.547,21.962 C10.406,22.328 10.660,22.750 11.055,22.750 L13.734,22.750 L13.734,37.937 C13.734,38.247 13.988,38.500 14.298,38.500 L35.730,38.500 C36.040,38.500 36.294,38.247 36.294,37.937 L36.294,22.750 L38.888,22.750 C39.283,22.750 39.565,22.356 39.424,21.991 ZM29.526,34.000 L20.502,34.000 L20.502,31.750 L29.526,31.750 L29.526,34.000 ZM29.526,29.500 L20.502,29.500 L20.502,27.250 L29.526,27.250 L29.526,29.500 ZM29.526,25.000 L20.502,25.000 L20.502,22.750 L29.526,22.750 L29.526,25.000 Z"/>
</svg>
