<svg 
 xmlns="http://www.w3.org/2000/svg"
 xmlns:xlink="http://www.w3.org/1999/xlink"
 width="50px" height="50px">
<path fill-rule="evenodd"  fill="rgb(255, 172, 0)"
 d="M10.000,0.000 L40.000,0.000 C45.523,0.000 50.000,4.477 50.000,10.000 L50.000,40.000 C50.000,45.523 45.523,50.000 40.000,50.000 L10.000,50.000 C4.477,50.000 0.000,45.523 0.000,40.000 L0.000,10.000 C0.000,4.477 4.477,0.000 10.000,0.000 Z"/>
<path fill-rule="evenodd"  fill="rgb(255, 255, 255)"
 d="M38.888,16.779 L25.992,9.322 C25.672,9.131 25.272,9.131 24.951,9.322 L12.102,16.778 C11.776,16.970 11.660,17.317 11.660,17.696 L11.660,32.613 C11.660,32.992 11.782,33.342 12.112,33.531 L25.008,40.990 C25.163,41.081 25.339,41.130 25.520,41.131 C25.701,41.131 25.879,41.082 26.042,40.990 L38.893,33.530 C39.218,33.339 39.340,32.992 39.340,32.613 L39.340,17.696 C39.340,17.317 39.214,16.967 38.888,16.779 ZM33.800,21.880 L26.228,26.155 L26.228,34.709 C26.228,34.723 26.225,34.735 26.225,34.748 C26.208,35.187 26.111,35.528 25.731,35.605 C25.562,35.712 25.366,35.770 25.166,35.770 L25.105,35.770 C24.519,35.770 24.043,35.295 24.043,34.709 L24.043,25.919 C24.043,25.848 24.050,25.778 24.064,25.710 L17.275,21.884 C16.764,21.593 16.477,20.942 16.768,20.434 C17.066,19.928 17.653,19.751 18.160,20.041 L25.529,24.310 L32.914,20.042 C33.421,19.751 33.987,19.925 34.278,20.432 C34.569,20.939 34.308,21.590 33.800,21.880 Z"/>
</svg>
