<svg 
 xmlns="http://www.w3.org/2000/svg"
 xmlns:xlink="http://www.w3.org/1999/xlink"
 width="50px" height="50px">
<path fill-rule="evenodd"  fill="rgb(167, 114, 239)"
 d="M10.000,0.000 L40.000,0.000 C45.523,0.000 50.000,4.477 50.000,10.000 L50.000,40.000 C50.000,45.523 45.523,50.000 40.000,50.000 L10.000,50.000 C4.477,50.000 0.000,45.523 0.000,40.000 L0.000,10.000 C0.000,4.477 4.477,0.000 10.000,0.000 Z"/>
<path fill-rule="evenodd"  fill="rgb(255, 255, 255)"
 d="M29.723,33.937 C29.724,33.005 30.479,32.251 31.410,32.250 L37.795,32.250 C37.812,32.026 37.821,31.801 37.821,31.575 L37.821,12.337 C37.820,11.406 37.065,10.651 36.134,10.650 L13.866,10.650 C12.934,10.651 12.180,11.406 12.179,12.337 L12.179,38.662 C12.180,39.593 12.934,40.348 13.866,40.349 L29.049,40.349 C29.275,40.349 29.500,40.341 29.723,40.324 L29.723,33.937 ZM27.699,16.050 L31.748,16.050 C32.120,16.050 32.422,16.353 32.422,16.725 C32.422,17.098 32.120,17.400 31.748,17.400 L27.699,17.400 C27.326,17.400 27.024,17.098 27.024,16.725 C27.024,16.352 27.326,16.050 27.699,16.050 L27.699,16.050 ZM27.699,21.450 L31.748,21.450 C32.120,21.450 32.422,21.752 32.422,22.125 C32.422,22.498 32.120,22.800 31.748,22.800 L27.699,22.800 C27.326,22.800 27.024,22.497 27.025,22.124 C27.025,21.752 27.327,21.450 27.699,21.450 ZM17.577,16.725 C17.577,16.352 17.879,16.050 18.251,16.049 C18.457,16.049 18.651,16.143 18.779,16.303 L22.975,21.551 L22.975,16.725 C22.976,16.352 23.278,16.050 23.651,16.050 C24.023,16.051 24.325,16.352 24.325,16.725 L24.325,23.475 C24.325,23.848 24.023,24.150 23.651,24.150 C23.445,24.150 23.251,24.057 23.123,23.897 L18.927,18.649 L18.927,23.475 C18.926,23.848 18.624,24.150 18.251,24.149 C17.879,24.149 17.577,23.847 17.577,23.475 L17.577,16.725 ZM18.252,28.200 L31.748,28.200 C32.120,28.200 32.422,28.502 32.422,28.875 C32.422,29.247 32.120,29.550 31.748,29.550 L18.252,29.550 C17.879,29.550 17.577,29.247 17.577,28.875 C17.577,28.502 17.879,28.200 18.252,28.200 ZM27.699,34.949 L18.252,34.949 C17.879,34.949 17.577,34.647 17.577,34.274 C17.577,33.902 17.879,33.600 18.252,33.600 L27.699,33.600 C28.072,33.600 28.374,33.902 28.374,34.274 C28.374,34.647 28.072,34.949 27.699,34.949 ZM37.586,33.600 C36.821,36.828 34.301,39.349 31.073,40.115 L31.073,33.937 C31.073,33.751 31.224,33.600 31.410,33.600 L31.410,33.600 L37.586,33.600 Z"/>
</svg>
