<svg 
 xmlns="http://www.w3.org/2000/svg"
 xmlns:xlink="http://www.w3.org/1999/xlink"
 width="50px" height="50px">
<path fill-rule="evenodd"  fill="rgb(242, 86, 67)"
 d="M10.000,0.000 L40.000,0.000 C45.523,0.000 50.000,4.477 50.000,10.000 L50.000,40.000 C50.000,45.523 45.523,50.000 40.000,50.000 L10.000,50.000 C4.477,50.000 0.000,45.523 0.000,40.000 L0.000,10.000 C0.000,4.477 4.477,0.000 10.000,0.000 Z"/>
<path fill-rule="evenodd"  fill="rgb(255, 255, 255)"
 d="M36.667,21.287 L35.164,18.682 L38.636,16.677 L40.139,19.282 L36.667,21.287 ZM30.207,14.829 L32.211,11.356 L34.815,12.860 L32.810,16.333 L30.207,14.829 ZM23.996,9.960 L27.002,9.960 L27.002,13.971 L23.996,13.971 L23.996,9.960 ZM16.183,12.863 L18.786,11.359 L20.790,14.832 L18.187,16.336 L16.183,12.863 ZM10.860,19.283 L12.363,16.678 L15.834,18.683 L14.331,21.288 L10.860,19.283 ZM11.971,37.031 L15.479,37.031 L15.479,26.002 C15.479,20.465 19.965,15.976 25.499,15.976 C31.034,15.976 35.520,20.465 35.520,26.002 L35.520,37.031 L39.027,37.031 C39.304,37.031 39.528,37.256 39.528,37.533 L39.528,39.538 C39.528,39.815 39.304,40.039 39.027,40.039 L11.971,40.039 C11.695,40.039 11.470,39.815 11.470,39.538 L11.470,37.533 C11.470,37.256 11.695,37.031 11.971,37.031 Z"/>
<path fill-rule="evenodd"  fill="rgb(242, 86, 67)"
 d="M29.468,25.501 L26.286,25.501 L26.882,21.335 C26.898,21.198 26.799,21.073 26.662,21.057 C26.581,21.048 26.501,21.079 26.446,21.140 L21.341,27.095 C21.252,27.202 21.266,27.360 21.373,27.448 C21.417,27.485 21.473,27.506 21.531,27.506 L24.713,27.506 L24.116,31.672 C24.100,31.810 24.199,31.934 24.337,31.950 C24.418,31.959 24.498,31.929 24.552,31.868 L29.658,25.912 C29.746,25.806 29.732,25.648 29.626,25.559 C29.581,25.522 29.525,25.502 29.468,25.501 Z"/>
</svg>
