<svg 
 xmlns="http://www.w3.org/2000/svg"
 xmlns:xlink="http://www.w3.org/1999/xlink"
 width="50px" height="50px">
<path fill-rule="evenodd"  fill="rgb(167, 114, 239)"
 d="M10.000,0.000 L40.000,0.000 C45.523,0.000 50.000,4.477 50.000,10.000 L50.000,40.000 C50.000,45.523 45.523,50.000 40.000,50.000 L10.000,50.000 C4.477,50.000 0.000,45.523 0.000,40.000 L0.000,10.000 C0.000,4.477 4.477,0.000 10.000,0.000 Z"/>
<path fill-rule="evenodd"  fill="rgb(255, 255, 255)"
 d="M25.499,10.470 C33.800,10.470 40.529,17.199 40.529,25.500 C40.529,33.800 33.800,40.530 25.499,40.530 C17.199,40.530 10.469,33.800 10.469,25.500 C10.469,17.199 17.199,10.470 25.499,10.470 ZM33.058,21.696 C32.617,21.256 31.904,21.257 31.464,21.698 L26.652,26.524 L23.771,23.385 C23.350,22.926 22.637,22.895 22.178,23.316 C22.161,23.332 22.145,23.348 22.129,23.365 L17.924,27.723 C17.492,28.171 17.505,28.885 17.953,29.317 C18.401,29.749 19.115,29.736 19.547,29.288 L22.920,25.792 L25.788,28.916 C26.209,29.375 26.922,29.406 27.381,28.985 C27.393,28.974 27.405,28.962 27.417,28.950 L33.060,23.290 C33.500,22.849 33.499,22.135 33.058,21.696 L33.058,21.696 Z"/>
</svg>
