<svg 
 xmlns="http://www.w3.org/2000/svg"
 xmlns:xlink="http://www.w3.org/1999/xlink"
 width="50px" height="50px">
<path fill-rule="evenodd"  fill="rgb(255, 172, 0)"
 d="M10.000,0.000 L40.000,0.000 C45.523,0.000 50.000,4.477 50.000,10.000 L50.000,40.000 C50.000,45.523 45.523,50.000 40.000,50.000 L10.000,50.000 C4.477,50.000 0.000,45.523 0.000,40.000 L0.000,10.000 C0.000,4.477 4.477,0.000 10.000,0.000 Z"/>
<path fill-rule="evenodd"  fill="rgb(255, 255, 255)"
 d="M21.767,31.074 L24.153,33.460 L32.613,25.000 L24.153,16.540 L21.767,18.926 L26.133,23.308 L9.771,23.308 L9.771,26.692 L26.133,26.692 L21.767,31.074 ZM36.843,9.772 L13.155,9.772 C11.277,9.772 9.771,11.295 9.771,13.156 L9.771,19.924 L13.155,19.924 L13.155,13.156 L36.843,13.156 L36.843,36.844 L13.155,36.844 L13.155,30.076 L9.771,30.076 L9.771,36.844 C9.771,38.705 11.277,40.228 13.155,40.228 L36.843,40.228 C38.704,40.228 40.227,38.705 40.227,36.844 L40.227,13.156 C40.227,11.295 38.704,9.772 36.843,9.772 Z"/>
</svg>
