<svg 
 xmlns="http://www.w3.org/2000/svg"
 xmlns:xlink="http://www.w3.org/1999/xlink"
 width="50px" height="50px">
<path fill-rule="evenodd"  fill="rgb(242, 86, 67)"
 d="M10.000,0.000 L40.000,0.000 C45.523,0.000 50.000,4.477 50.000,10.000 L50.000,40.000 C50.000,45.523 45.523,50.000 40.000,50.000 L10.000,50.000 C4.477,50.000 0.000,45.523 0.000,40.000 L0.000,10.000 C0.000,4.477 4.477,0.000 10.000,0.000 Z"/>
<path fill-rule="evenodd"  fill="rgb(255, 255, 255)"
 d="M24.548,10.724 C20.971,10.934 18.025,13.845 17.784,17.417 C17.514,21.618 20.821,25.130 24.969,25.130 C28.967,25.130 32.184,21.888 32.184,17.927 C32.214,13.785 28.727,10.484 24.548,10.724 ZM24.999,27.471 C20.189,27.471 10.600,29.872 10.600,34.674 L10.600,38.275 C10.600,38.935 11.141,39.476 11.802,39.476 L38.196,39.476 C38.858,39.476 39.399,38.935 39.399,38.275 L39.399,34.644 C39.399,29.872 29.809,27.471 24.999,27.471 Z"/>
</svg>
