<svg xmlns="http://www.w3.org/2000/svg" xmlns:xlink="http://www.w3.org/1999/xlink" width="44" height="44" viewBox="0 0 44 44">
  <defs>
    <style>
      .cls-1 {
        fill: url(#linear-gradient);
      }

      .cls-2 {
        fill: #fff;
      }

      .cls-3 {
        filter: url(#椭圆_83);
      }
    </style>
    <linearGradient id="linear-gradient" x1="0.234" y1="0.079" x2="0.639" y2="1" gradientUnits="objectBoundingBox">
      <stop offset="0" stop-color="#409eff"/>
      <stop offset="1" stop-color="#0776e9"/>
    </linearGradient>
    <filter id="椭圆_83" x="0" y="0" width="44" height="44" filterUnits="userSpaceOnUse">
      <feOffset dy="3" input="SourceAlpha"/>
      <feGaussianBlur stdDeviation="3" result="blur"/>
      <feFlood flood-color="#409eff" flood-opacity="0.2"/>
      <feComposite operator="in" in2="blur"/>
      <feComposite in="SourceGraphic"/>
    </filter>
  </defs>
  <g id="组_22784" data-name="组 22784" transform="translate(-176 -420)">
    <g id="组_22782" data-name="组 22782" transform="translate(-1329 167)">
      <g class="cls-3" transform="matrix(1, 0, 0, 1, 1505, 253)">
        <circle id="椭圆_83-2" data-name="椭圆 83" class="cls-1" cx="13" cy="13" r="13" transform="translate(9 6)"/>
      </g>
    </g>
    <path id="联合_26" data-name="联合 26" class="cls-2" d="M5201,6530v-4h-4a1,1,0,1,1,0-2h4v-4a1,1,0,0,1,2,0v4h4a1,1,0,0,1,0,2h-4v4a1,1,0,1,1-2,0Z" transform="translate(-5003.999 -6086)"/>
  </g>
</svg>
