<svg xmlns="http://www.w3.org/2000/svg" width="24" height="24" viewBox="0 0 24 24">
  <defs>
    <style>
      .cls-1 {
        fill: none;
      }

      .cls-2 {
        fill: #9fa2b5;
      }
    </style>
  </defs>
  <g id="组_23743" data-name="组 23743" transform="translate(-20 -96)">
    <rect id="矩形_300" data-name="矩形 300" class="cls-1" width="24" height="24" transform="translate(20 96)"/>
    <g id="组_23754" data-name="组 23754" transform="translate(-3235.937 670.734)">
      <g id="组_23750" data-name="组 23750" transform="translate(3258.926 -573.855)">
        <path id="路径_18663" data-name="路径 18663" class="cls-2" d="M3267.936-555.833a9.021,9.021,0,0,1-9.01-9.011,9.021,9.021,0,0,1,9.01-9.011,9.021,9.021,0,0,1,9.012,9.011A9.021,9.021,0,0,1,3267.936-555.833Zm0-16.168a7.165,7.165,0,0,0-7.156,7.157,7.165,7.165,0,0,0,7.156,7.157,7.166,7.166,0,0,0,7.158-7.157A7.166,7.166,0,0,0,3267.936-572Z" transform="translate(-3258.926 573.855)"/>
      </g>
      <g id="组_23751" data-name="组 23751" transform="translate(3264.878 -567.904)">
        <path id="路径_18664" data-name="路径 18664" class="cls-2" d="M3268.407-561.314a3.062,3.062,0,0,1-3.058-3.059,3.062,3.062,0,0,1,3.058-3.06,3.063,3.063,0,0,1,3.06,3.06A3.063,3.063,0,0,1,3268.407-561.314Zm0-4.265a1.207,1.207,0,0,0-1.2,1.207,1.207,1.207,0,0,0,1.2,1.206,1.207,1.207,0,0,0,1.207-1.206A1.208,1.208,0,0,0,3268.407-565.58Z" transform="translate(-3265.349 567.433)"/>
      </g>
      <g id="组_23752" data-name="组 23752" transform="translate(3261.676 -553.513)">
        <rect id="矩形_5153" data-name="矩形 5153" class="cls-2" width="12.522" height="1.853"/>
      </g>
      <g id="组_23753" data-name="组 23753" transform="translate(3267.01 -557.31)">
        <rect id="矩形_5154" data-name="矩形 5154" class="cls-2" width="1.853" height="5.289"/>
      </g>
    </g>
  </g>
</svg>
