<svg xmlns="http://www.w3.org/2000/svg" width="24" height="24" viewBox="0 0 24 24">
  <defs>
    <style>
      .cls-1 {
        fill: none;
      }

      .cls-2 {
        fill: #9fa2b5;
      }
    </style>
  </defs>
  <g id="组_23703" data-name="组 23703" transform="translate(-20 -96)">
    <rect id="矩形_300" data-name="矩形 300" class="cls-1" width="24" height="24" transform="translate(20 96)"/>
    <g id="组_22588" data-name="组 22588" transform="translate(-3202.039 671.393)">
      <g id="组_22586" data-name="组 22586" transform="translate(3230.889 -566.506)">
        <path id="路径_18199" data-name="路径 18199" class="cls-2" d="M3234.657-559.478a3.117,3.117,0,0,1-3.114-3.114,3.117,3.117,0,0,1,3.114-3.113,3.117,3.117,0,0,1,3.112,3.113A3.116,3.116,0,0,1,3234.657-559.478Zm0-4.4a1.291,1.291,0,0,0-1.291,1.29,1.292,1.292,0,0,0,1.291,1.291,1.292,1.292,0,0,0,1.29-1.291A1.292,1.292,0,0,0,3234.657-563.882Z" transform="translate(-3231.543 565.705)"/>
      </g>
      <g id="组_22587" data-name="组 22587" transform="translate(3224.166 -574.751)">
        <path id="路径_18200" data-name="路径 18200" class="cls-2" d="M3243.3-557.537l-4.684,2.7.912,1.579,5.6-3.231v-4.389H3243.3Z" transform="translate(-3225.445 573.522)"/>
        <path id="路径_18201" data-name="路径 18201" class="cls-2" d="M3234-574.751l-9.837,5.68v11.358l9.837,5.68,2.512-1.451-.911-1.578-1.6.924-8.014-4.626v-9.254l8.014-4.627,8.013,4.627v6.376h1.823v-7.428Z" transform="translate(-3224.166 574.751)"/>
      </g>
    </g>
  </g>
</svg>
