<svg xmlns="http://www.w3.org/2000/svg" width="14" height="14" viewBox="0 0 14 14">
  <defs>
    <style>
      .cls-1 {
        fill: #d5d2d2;
      }
    </style>
  </defs>
  <g id="组_22708" data-name="组 22708" transform="translate(-867.22 213.321)">
    <path id="路径_18268" data-name="路径 18268" class="cls-1" d="M879.852-210.465l-2.681,2.682.028.028h0a.633.633,0,0,1,0,.9.634.634,0,0,1-.9,0l-.029-.029-1.422,1.423v.578a.633.633,0,0,1-.631.63.623.623,0,0,1-.416-.161l-.98.98h3a.633.633,0,0,1,.633.633.633.633,0,0,1-.633.634h-3.205a.626.626,0,0,1-.6-.46l-1.943,1.943a6.963,6.963,0,0,0,4.144,1.367,7,7,0,0,0,7-7A6.957,6.957,0,0,0,879.852-210.465Z"/>
    <path id="路径_18269" data-name="路径 18269" class="cls-1" d="M879.466-212.045a.493.493,0,0,0-.7,0l-.228.228a6.955,6.955,0,0,0-4.32-1.5,7,7,0,0,0-7,7,6.953,6.953,0,0,0,1.5,4.32l-.227.227a.493.493,0,0,0,0,.7.494.494,0,0,0,.7,0l10.27-10.27A.494.494,0,0,0,879.466-212.045Zm-4.523,3.825-.09-.09v.18l-1.267,1.267v-1.447l-1.451,1.451a.634.634,0,0,1-.9,0,.633.633,0,0,1,0-.9l2.529-2.53a.639.639,0,0,1,.9,0l1.17,1.169Z"/>
  </g>
</svg>
