<svg xmlns="http://www.w3.org/2000/svg" width="14" height="14" viewBox="0 0 14 14">
  <defs>
    <style>
      .cls-1 {
        fill: #409eff;
      }
    </style>
  </defs>
  <path id="路径_18265" data-name="路径 18265" class="cls-1" d="M870.122-220.931a7,7,0,0,0-7,7,7,7,0,0,0,7,7,7,7,0,0,0,7-7A7,7,0,0,0,870.122-220.931Zm1.6,11.151h-3.2a.634.634,0,0,1-.634-.634.633.633,0,0,1,.634-.634h3.2a.633.633,0,0,1,.634.634A.634.634,0,0,1,871.724-209.78Zm1.379-4.688a.635.635,0,0,1-.9,0l-1.451-1.451v3.422a.634.634,0,0,1-.631.631.633.633,0,0,1-.636-.631v-3.422l-1.451,1.451a.635.635,0,0,1-.9,0,.635.635,0,0,1,0-.9l2.529-2.53a.639.639,0,0,1,.9,0l2.53,2.53h0A.633.633,0,0,1,873.1-214.468Z" transform="translate(-863.122 220.931)"/>
</svg>
