<svg xmlns="http://www.w3.org/2000/svg" width="28" height="28" viewBox="0 0 28 28">
  <defs>
    <style>
      .cls-1 {
        fill: none;
      }

      .cls-2 {
        fill: #6a6f81;
      }
    </style>
  </defs>
  <g id="组_23205" data-name="组 23205" transform="translate(-17 -109)">
    <rect id="矩形_295" data-name="矩形 295" class="cls-1" width="28" height="28" transform="translate(17 109)"/>
    <g id="组_23951" data-name="组 23951" transform="translate(-1018.574 -187.112)">
      <g id="组_23949" data-name="组 23949" transform="translate(1047.728 308.267)">
        <path id="路径_19362" data-name="路径 19362" class="cls-2" d="M1049.028,311.336a1.845,1.845,0,1,1,1.845-1.845A1.848,1.848,0,0,1,1049.028,311.336Zm0-2.193a.348.348,0,1,0,.348.348A.348.348,0,0,0,1049.028,309.143Z" transform="translate(-1047.182 -307.646)"/>
      </g>
      <g id="组_23950" data-name="组 23950" transform="translate(1041.524 301.21)">
        <path id="路径_19363" data-name="路径 19363" class="cls-2" d="M1049.574,303.4a.343.343,0,0,1,.172.046l5.512,3.182a.345.345,0,0,1,.172.3V313.3a.342.342,0,0,1-.172.3l-5.512,3.183a.345.345,0,0,1-.344,0l-5.512-3.183a.342.342,0,0,1-.172-.3V306.93a.345.345,0,0,1,.172-.3l5.512-3.182a.343.343,0,0,1,.172-.046m0-2.193a2.531,2.531,0,0,0-1.269.34l-5.512,3.182a2.538,2.538,0,0,0-1.269,2.2V313.3a2.536,2.536,0,0,0,1.269,2.2l5.512,3.183a2.537,2.537,0,0,0,2.537,0l5.512-3.183a2.536,2.536,0,0,0,1.269-2.2V306.93a2.538,2.538,0,0,0-1.269-2.2l-5.512-3.182a2.533,2.533,0,0,0-1.269-.34Z" transform="translate(-1041.524 -301.21)"/>
      </g>
    </g>
  </g>
</svg>
